<svg width="142" height="106" viewBox="0 0 142 106" fill="none" xmlns="http://www.w3.org/2000/svg">
<path d="M124.5 57.5C124.5 83.9818 101.695 105.5 73.5 105.5C45.3048 105.5 22.5 83.9818 22.5 57.5C22.5 31.0182 45.3048 9.5 73.5 9.5C101.695 9.5 124.5 31.0182 124.5 57.5Z" fill="#FDF1DA" stroke="black"/>
<path d="M32.5 28.5C29.3 -3.1 41.1667 6.33333 47.5 15" stroke="black"/>
<path d="M93.5 12C104.333 1.16667 123 -11.6 111 24" stroke="black"/>
<line x1="53.0837" y1="62.4929" x2="0.0837067" y2="71.4929" stroke="black"/>
<line x1="11.799" y1="88.5422" x2="52.799" y2="70.5422" stroke="black"/>
<line x1="83.1482" y1="61.5225" x2="141.148" y2="79.5225" stroke="black"/>
<line x1="82.2935" y1="71.5952" x2="122.293" y2="100.595" stroke="black"/>
<path d="M79 58C76.5 64.3333 69.1 73.2 59.5 58" stroke="black"/>
</svg>
