<svg version="1.1" xmlns="http://www.w3.org/2000/svg" viewBox="0 0 278.0236575930193 220.14356211232018" width="556.0473151860386" height="440.28712422464037">
  <!-- svg-source:excalidraw -->

  <defs>
    <style class="style-fonts">
      @font-face {
        font-family: "Virgil";
        src: url("https://excalidraw.com/Virgil.woff2");
      }
      @font-face {
        font-family: "Cascadia";
        src: url("https://excalidraw.com/Cascadia.woff2");
      }
    </style>
  </defs>
  <rect x="0" y="0" width="278.0236575930193" height="220.14356211232018" fill="#ffffff"></rect><g stroke-linecap="round" transform="translate(38.9860637659952 27) rotate(0 89.5 86)"><path d="M76.67 1.89 C87.63 -1.15, 100.45 -0.63, 112.04 2.34 C123.63 5.31, 136.62 12.09, 146.21 19.73 C155.81 27.38, 164.18 37.74, 169.61 48.22 C175.05 58.71, 178.14 71.11, 178.82 82.65 C179.51 94.19, 178 106.77, 173.73 117.48 C169.46 128.2, 161.93 138.83, 153.18 146.94 C144.43 155.04, 132.77 162.1, 121.23 166.11 C109.68 170.12, 95.99 171.5, 83.91 171.01 C71.83 170.52, 59.57 168.51, 48.76 163.17 C37.95 157.83, 26.64 148.26, 19.05 138.96 C11.46 129.66, 6.16 118.46, 3.19 107.37 C0.22 96.28, -0.7 83.94, 1.23 72.44 C3.16 60.94, 8.26 48.19, 14.77 38.39 C21.29 28.59, 29.45 19.8, 40.34 13.65 C51.22 7.49, 72.94 3.47, 80.08 1.46 C87.22 -0.56, 83.02 0.44, 83.2 1.58 M111.62 1.91 C123.32 3.06, 135.84 10.04, 145.25 17.18 C154.66 24.31, 162.7 34.51, 168.06 44.72 C173.42 54.92, 176.73 66.72, 177.44 78.41 C178.15 90.09, 176.03 103.58, 172.32 114.83 C168.61 126.08, 163.41 137.54, 155.18 145.92 C146.94 154.3, 134.45 160.79, 122.94 165.12 C111.43 169.45, 98.27 172.34, 86.11 171.9 C73.95 171.46, 60.8 167.36, 49.95 162.48 C39.11 157.59, 28.82 151.61, 21.05 142.6 C13.28 133.59, 6.52 119.94, 3.33 108.4 C0.14 96.86, 0.19 84.85, 1.9 73.36 C3.61 61.87, 7.15 49.23, 13.59 39.45 C20.03 29.68, 30.68 20.9, 40.54 14.71 C50.4 8.52, 60.94 4.19, 72.75 2.31 C84.57 0.43, 105.34 2.98, 111.45 3.42 C117.55 3.87, 110.03 3.98, 109.37 4.97" stroke="#000000" stroke-width="1" fill="none"></path></g><g stroke-linecap="round"><g transform="translate(9.986063765995198 133) rotate(0 43.42497622227299 2.0547939593717217)"><path d="M0.97 0.21 C15.61 0.86, 72.55 2.91, 86.84 3.54 M0.01 -0.72 C14.58 0.13, 71.51 3.84, 85.8 4.83" stroke="#000000" stroke-width="1" fill="none"></path></g></g><mask></mask><g stroke-linecap="round"><g transform="translate(21.986063765995198 174) rotate(0 36.80184749532492 -12.890468081459403)"><path d="M1.18 -0.02 C13.05 -4.3, 59.05 -21.57, 71.05 -25.76 M0.33 -1.07 C12.6 -5.21, 61.15 -20.82, 73.27 -24.63" stroke="#000000" stroke-width="1" fill="none"></path></g></g><mask></mask><g stroke-linecap="round"><g transform="translate(50.9860637659952 204) rotate(0 24.04169238572939 -20.171003302559257)"><path d="M-0.92 0.06 C6.97 -6.83, 38.84 -33.77, 46.88 -40.4 M0.8 -0.96 C9.08 -7.76, 41.44 -32.85, 49 -39.07" stroke="#000000" stroke-width="1" fill="none"></path></g></g><mask></mask><g stroke-linecap="round"><g transform="translate(159.9860637659952 134) rotate(0 53.50493120290338 3.7151420617569215)"><path d="M-1.03 0.78 C16.81 1.91, 89.7 6.16, 108.04 7.29 M0.63 0.14 C18.23 0.85, 89.09 4.42, 107.11 5.32" stroke="#000000" stroke-width="1" fill="none"></path></g></g><mask></mask><g stroke-linecap="round"><g transform="translate(154.9860637659952 155) rotate(0 42.54614331983032 7.314622843209662)"><path d="M-0.35 0.2 C13.94 2.88, 71.02 12.76, 85.44 15.37 M1.66 -0.74 C15.77 1.63, 70.23 10.99, 84.2 13.43" stroke="#000000" stroke-width="1" fill="none"></path></g></g><mask></mask><g stroke-linecap="round"><g transform="translate(157.9860637659952 172) rotate(0 27.953454912407324 18.29018011407925)"><path d="M-0.99 -0.34 C8.21 5.72, 45.15 30.6, 54.81 36.74 M0.68 -1.56 C10.27 4.65, 47.55 31.62, 56.9 38.14" stroke="#000000" stroke-width="1" fill="none"></path></g></g><mask></mask><g transform="translate(56.9860637659952 57) rotate(0 8 -20)" stroke="none"><path fill="#000000" d="M -1.21,0.48 Q -1.21,0.48 -1.79,-0.95 -2.37,-2.39 -2.65,-4.00 -2.93,-5.60 -3.31,-7.34 -3.70,-9.09 -3.88,-10.48 -4.05,-11.87 -4.13,-13.05 -4.20,-14.23 -4.50,-15.46 -4.80,-16.70 -4.95,-17.92 -5.10,-19.15 -5.16,-20.25 -5.22,-21.35 -5.25,-22.69 -5.27,-24.03 -5.28,-26.32 -5.29,-28.61 -5.30,-30.45 -5.30,-32.28 -5.30,-34.20 -5.30,-36.12 -5.64,-37.68 -5.99,-39.23 -5.81,-39.29 -5.63,-39.35 -5.64,-39.50 -5.65,-39.66 -5.63,-39.82 -5.60,-39.97 -5.54,-40.12 -5.47,-40.26 -5.38,-40.39 -5.28,-40.52 -5.16,-40.61 -5.03,-40.71 -4.89,-40.78 -4.75,-40.85 -4.59,-40.88 -4.43,-40.91 -4.28,-40.90 -4.12,-40.89 -3.97,-40.84 -3.81,-40.80 -3.68,-40.72 -3.54,-40.64 -3.43,-40.53 -3.32,-40.41 -3.23,-40.28 -3.15,-40.15 -3.10,-39.99 -3.05,-39.84 -2.12,-39.16 -1.18,-38.48 -0.24,-37.72 0.70,-36.97 1.89,-35.85 3.09,-34.73 4.49,-33.75 5.88,-32.77 6.86,-32.09 7.85,-31.41 8.81,-30.33 9.77,-29.24 10.78,-28.28 11.78,-27.31 12.79,-26.27 13.79,-25.22 14.79,-24.22 15.79,-23.22 16.80,-22.80 17.81,-22.39 18.56,-21.56 19.32,-20.74 20.73,-19.18 22.15,-17.62 22.22,-17.42 22.29,-17.22 22.29,-17.01 22.29,-16.80 22.23,-16.60 22.16,-16.39 22.04,-16.22 21.91,-16.05 21.73,-15.93 21.56,-15.81 21.36,-15.75 21.15,-15.69 20.94,-15.70 20.73,-15.71 20.53,-15.79 20.33,-15.86 20.17,-16.00 20.00,-16.13 19.89,-16.31 19.78,-16.50 19.73,-16.70 19.68,-16.91 19.71,-17.12 19.73,-17.33 19.81,-17.53 19.90,-17.72 20.04,-17.88 20.19,-18.03 20.38,-18.13 20.56,-18.23 20.77,-18.27 20.98,-18.31 21.19,-18.28 21.40,-18.24 21.59,-18.15 21.78,-18.05 21.93,-17.90 22.07,-17.74 22.17,-17.55 22.26,-17.36 22.28,-17.15 22.31,-16.94 22.26,-16.73 22.22,-16.52 22.11,-16.34 22.01,-16.16 21.84,-16.02 21.68,-15.88 21.49,-15.80 21.29,-15.72 21.08,-15.70 20.87,-15.69 20.66,-15.74 20.46,-15.80 20.28,-15.91 20.10,-16.03 19.97,-16.20 19.84,-16.37 19.84,-16.37 19.84,-16.37 18.54,-17.75 17.23,-19.14 16.09,-20.08 14.95,-21.01 13.86,-22.11 12.77,-23.20 11.75,-24.02 10.74,-24.84 10.11,-25.69 9.48,-26.55 8.61,-27.37 7.74,-28.20 6.53,-28.97 5.32,-29.75 4.21,-30.70 3.10,-31.64 2.19,-32.23 1.28,-32.83 0.14,-33.89 -0.99,-34.96 -2.26,-35.83 -3.53,-36.71 -4.58,-38.03 -5.63,-39.35 -5.64,-39.50 -5.65,-39.66 -5.63,-39.82 -5.60,-39.97 -5.54,-40.12 -5.47,-40.26 -5.38,-40.39 -5.28,-40.52 -5.16,-40.61 -5.03,-40.71 -4.89,-40.78 -4.75,-40.85 -4.59,-40.88 -4.43,-40.91 -4.28,-40.90 -4.12,-40.89 -3.97,-40.84 -3.81,-40.80 -3.68,-40.72 -3.54,-40.64 -3.43,-40.53 -3.32,-40.41 -3.23,-40.28 -3.15,-40.15 -3.10,-39.99 -3.05,-39.84 -3.19,-39.03 -3.33,-38.22 -3.01,-37.19 -2.68,-36.17 -2.68,-34.23 -2.68,-32.29 -2.67,-30.46 -2.67,-28.63 -2.66,-26.35 -2.65,-24.08 -2.57,-21.76 -2.49,-19.45 -2.37,-18.38 -2.25,-17.30 -1.91,-15.85 -1.58,-14.39 -1.51,-13.29 -1.45,-12.19 -1.29,-10.92 -1.13,-9.65 -0.74,-7.84 -0.34,-6.03 -0.13,-4.69 0.07,-3.35 0.64,-1.92 1.21,-0.48 1.26,-0.33 1.30,-0.18 1.30,-0.02 1.30,0.13 1.27,0.28 1.23,0.44 1.16,0.58 1.09,0.72 0.99,0.84 0.88,0.96 0.75,1.05 0.63,1.15 0.48,1.21 0.33,1.26 0.18,1.29 0.02,1.31 -0.13,1.29 -0.29,1.28 -0.44,1.22 -0.58,1.17 -0.72,1.08 -0.85,0.99 -0.96,0.88 -1.06,0.76 -1.14,0.62 -1.21,0.48 -1.21,0.48 L -1.21,0.48 Z"></path></g><g transform="translate(174.9860637659952 35) rotate(0 12.5 -0.5)" stroke="none"><path fill="#000000" d="M -0.92,-0.92 Q -0.92,-0.92 -0.35,-1.50 0.21,-2.07 0.97,-3.11 1.73,-4.14 3.83,-6.65 5.92,-9.17 7.36,-11.06 8.80,-12.95 10.31,-14.67 11.82,-16.39 13.10,-17.45 14.37,-18.52 15.38,-19.73 16.38,-20.94 17.73,-22.38 19.08,-23.81 20.66,-24.46 22.24,-25.11 23.15,-23.08 24.07,-21.05 24.14,-19.30 24.21,-17.55 24.24,-15.96 24.27,-14.36 24.28,-12.41 24.30,-10.46 24.30,-9.17 24.31,-7.89 24.31,-5.55 24.31,-3.22 24.57,-1.51 24.83,0.19 25.03,1.91 25.23,3.63 25.66,5.27 26.09,6.91 26.18,8.35 26.27,9.79 26.29,10.98 26.30,12.17 26.31,13.71 26.31,15.25 26.31,16.75 26.31,18.26 26.31,21.13 26.31,23.99 26.27,24.20 26.24,24.41 26.14,24.60 26.04,24.79 25.89,24.94 25.73,25.08 25.54,25.17 25.35,25.26 25.14,25.28 24.92,25.31 24.72,25.26 24.51,25.22 24.33,25.11 24.14,25.00 24.01,24.83 23.87,24.67 23.79,24.47 23.71,24.28 23.70,24.07 23.69,23.85 23.75,23.65 23.80,23.44 23.92,23.27 24.04,23.09 24.21,22.96 24.38,22.83 24.58,22.77 24.78,22.70 25.00,22.70 25.21,22.70 25.41,22.77 25.61,22.83 25.78,22.96 25.95,23.09 26.07,23.27 26.19,23.44 26.24,23.65 26.30,23.85 26.29,24.07 26.28,24.28 26.20,24.47 26.12,24.67 25.98,24.83 25.84,25.00 25.66,25.11 25.48,25.22 25.27,25.26 25.07,25.31 24.85,25.28 24.64,25.26 24.45,25.17 24.26,25.08 24.10,24.94 23.95,24.79 23.85,24.60 23.75,24.41 23.72,24.20 23.68,23.99 23.68,23.99 23.68,24.00 23.68,21.13 23.68,18.26 23.68,16.75 23.68,15.25 23.68,13.72 23.68,12.19 23.66,11.02 23.65,9.86 23.52,8.31 23.39,6.76 23.00,5.27 22.61,3.78 22.46,2.36 22.31,0.94 22.00,-1.14 21.68,-3.22 21.68,-5.55 21.68,-7.89 21.68,-9.16 21.67,-10.44 21.66,-12.38 21.64,-14.31 21.61,-15.88 21.59,-17.45 21.29,-19.73 20.99,-22.01 19.69,-20.63 18.39,-19.24 17.22,-17.88 16.06,-16.51 14.92,-15.58 13.79,-14.64 12.34,-13.00 10.89,-11.37 9.41,-9.42 7.94,-7.48 5.89,-5.03 3.84,-2.58 2.96,-1.40 2.08,-0.22 1.50,0.35 0.92,0.92 0.80,1.02 0.67,1.12 0.53,1.18 0.39,1.25 0.23,1.28 0.07,1.31 -0.07,1.30 -0.23,1.29 -0.38,1.24 -0.53,1.19 -0.67,1.11 -0.80,1.03 -0.92,0.92 -1.03,0.80 -1.11,0.67 -1.19,0.53 -1.24,0.38 -1.29,0.23 -1.30,0.07 -1.31,-0.07 -1.28,-0.23 -1.25,-0.39 -1.18,-0.53 -1.12,-0.67 -1.02,-0.80 -0.92,-0.92 -0.92,-0.92 L -0.92,-0.92 Z"></path></g><g transform="translate(113.9860637659952 128) rotate(0 15.5 7.5)" stroke="none"><path fill="#000000" d="M 0,-1.31 Q 0,-1.31 2.01,-1.31 4.02,-1.31 6.31,-1.31 8.60,-1.31 10.64,-1.59 12.68,-1.87 14.49,-2.00 16.29,-2.12 17.64,-2.18 18.98,-2.23 20.50,-2.26 22.02,-2.29 23.16,-2.30 24.31,-2.30 25.70,-2.30 27.08,-2.31 28.36,-2.21 29.63,-2.11 30.38,-1.02 31.12,0.06 31.55,1.86 31.98,3.67 31.56,4.76 31.13,5.85 30.35,7.42 29.56,8.99 28.90,10.05 28.24,11.12 27.39,12.14 26.54,13.17 24.54,15.18 22.54,17.19 22.33,17.25 22.13,17.30 21.91,17.29 21.70,17.27 21.50,17.19 21.31,17.11 21.15,16.98 20.99,16.84 20.88,16.65 20.77,16.47 20.73,16.26 20.68,16.05 20.71,15.84 20.73,15.63 20.82,15.44 20.91,15.25 21.06,15.10 21.21,14.94 21.40,14.84 21.59,14.75 21.80,14.71 22.01,14.68 22.22,14.72 22.43,14.75 22.61,14.86 22.80,14.96 22.94,15.11 23.09,15.27 23.18,15.46 23.26,15.66 23.28,15.87 23.31,16.08 23.26,16.29 23.21,16.49 23.10,16.67 22.99,16.85 22.82,16.99 22.66,17.13 22.46,17.20 22.27,17.28 22.05,17.29 21.84,17.30 21.64,17.24 21.43,17.18 21.26,17.06 21.08,16.94 20.96,16.77 20.83,16.60 20.76,16.40 20.70,16.20 20.70,15.98 20.70,15.77 20.77,15.57 20.84,15.37 20.97,15.20 21.10,15.03 21.28,14.92 21.45,14.80 21.45,14.80 21.45,14.80 22.31,14.22 23.17,13.65 23.83,12.59 24.49,11.53 25.33,10.64 26.18,9.76 26.99,8.44 27.79,7.12 28.40,5.97 29.00,4.82 29.21,3.43 29.43,2.05 28.26,1.18 27.09,0.31 25.70,0.31 24.32,0.31 23.19,0.32 22.05,0.32 20.57,0.35 19.09,0.38 17.78,0.43 16.48,0.49 14.75,0.60 13.03,0.72 10.82,1.01 8.61,1.31 6.31,1.31 4.02,1.31 2.01,1.31 0,1.31 -0.15,1.29 -0.31,1.27 -0.46,1.21 -0.61,1.16 -0.74,1.07 -0.87,0.98 -0.97,0.86 -1.08,0.74 -1.15,0.60 -1.22,0.46 -1.26,0.31 -1.30,0.15 -1.30,-0.00 -1.30,-0.15 -1.26,-0.31 -1.22,-0.46 -1.15,-0.60 -1.08,-0.74 -0.97,-0.86 -0.87,-0.98 -0.74,-1.07 -0.61,-1.16 -0.46,-1.21 -0.31,-1.27 -0.15,-1.29 0.00,-1.31 0.00,-1.31 L 0,-1.31 Z"></path></g><g transform="translate(114.9860637659952 128) rotate(0 8 9.5)" stroke="none"><path fill="#000000" d="M 0.92,0.92 Q 0.92,0.92 0.34,1.51 -0.24,2.09 -0.95,3.18 -1.65,4.27 -0.81,5.63 0.01,6.98 0.61,7.87 1.21,8.76 2.45,9.74 3.70,10.73 4.69,11.23 5.69,11.73 6.69,12.23 7.69,12.73 8.79,13.28 9.89,13.84 11.00,14.64 12.12,15.43 13.12,16.09 14.13,16.75 16.31,15.76 18.50,14.78 18.70,14.73 18.91,14.68 19.12,14.71 19.33,14.73 19.53,14.81 19.72,14.90 19.88,15.04 20.03,15.19 20.13,15.38 20.23,15.56 20.27,15.77 20.31,15.98 20.28,16.19 20.24,16.40 20.15,16.59 20.05,16.78 19.90,16.93 19.74,17.07 19.55,17.17 19.36,17.26 19.15,17.28 18.94,17.31 18.73,17.26 18.52,17.22 18.34,17.11 18.16,17.01 18.02,16.85 17.88,16.68 17.80,16.49 17.72,16.29 17.70,16.08 17.69,15.87 17.74,15.66 17.80,15.46 17.91,15.28 18.03,15.10 18.20,14.97 18.37,14.84 18.57,14.77 18.77,14.70 18.98,14.70 19.19,14.70 19.40,14.76 19.60,14.83 19.77,14.95 19.94,15.08 20.06,15.26 20.18,15.43 20.24,15.63 20.30,15.84 20.29,16.05 20.28,16.26 20.20,16.46 20.13,16.66 19.99,16.82 19.86,16.99 19.68,17.10 19.49,17.21 19.49,17.21 19.49,17.21 17.37,18.40 15.25,19.60 14.00,19.20 12.76,18.81 11.37,17.91 9.99,17.02 8.98,16.51 7.98,16.00 6.90,14.99 5.81,13.98 4.81,13.48 3.81,12.98 2.81,12.47 1.81,11.96 0.79,11.37 -0.23,10.77 -1.19,9.82 -2.16,8.86 -2.72,7.83 -3.27,6.79 -3.75,5.55 -4.22,4.30 -4.01,3.04 -3.81,1.78 -2.93,0.99 -2.05,0.20 -1.49,-0.36 -0.92,-0.92 -0.80,-1.02 -0.67,-1.12 -0.53,-1.18 -0.39,-1.25 -0.23,-1.28 -0.07,-1.31 0.07,-1.30 0.23,-1.29 0.38,-1.24 0.53,-1.19 0.67,-1.11 0.80,-1.03 0.92,-0.92 1.03,-0.80 1.11,-0.67 1.19,-0.53 1.24,-0.38 1.29,-0.23 1.30,-0.07 1.31,0.07 1.28,0.23 1.25,0.39 1.18,0.53 1.12,0.67 1.02,0.80 0.92,0.92 0.92,0.92 L 0.92,0.92 Z"></path></g></svg>
